<svg width="238" height="44" viewBox="0 0 238 44" fill="none" xmlns="http://www.w3.org/2000/svg">
<mask id="mask0_10101_34050" style="mask-type:alpha" maskUnits="userSpaceOnUse" x="1" y="0" width="236" height="56">
<rect width="236" height="56" transform="translate(1)" fill="url(#paint0_linear_10101_34050)"/>
</mask>
<g mask="url(#mask0_10101_34050)">
<path opacity="0.1" d="M26.1985 45.3413L1.93432 46.9385C1.40867 46.9731 1 47.4096 1 47.9363V55.5C1 56.0523 1.44772 56.5 2 56.5H236C236.552 56.5 237 56.0523 237 55.5V10C237 9.44772 236.552 9 236 9H228.688C228.611 9 228.533 8.99093 228.458 8.97298L203.573 3.06826C203.386 3.02371 203.189 3.03443 203.007 3.09914L178.106 11.9623C178.036 11.9874 177.963 12.0044 177.888 12.0132L152.808 14.9889C152.746 14.9963 152.684 15.0095 152.624 15.0285L127.634 22.935C127.499 22.9778 127.356 22.9913 127.215 22.9746L102.3 20.0186C102.196 20.0063 102.091 20.0103 101.988 20.0306L77.0256 24.9667C76.9141 24.9887 76.8072 25.0296 76.7094 25.0876L51.7136 39.9157C51.6194 39.9715 51.5168 40.0115 51.4097 40.0341L26.3392 45.3219C26.2928 45.3317 26.2458 45.3382 26.1985 45.3413Z" fill="#17B26A"/>
</g>
<path d="M1 47L26.1985 45.3413C26.2458 45.3382 26.2928 45.3317 26.3392 45.3219L51.4097 40.0341C51.5168 40.0115 51.6194 39.9715 51.7136 39.9157L76.7094 25.0876C76.8072 25.0296 76.9141 24.9887 77.0256 24.9667L101.988 20.0306C102.091 20.0103 102.196 20.0063 102.3 20.0186L127.215 22.9746C127.356 22.9913 127.499 22.9778 127.634 22.935L152.624 15.0285C152.684 15.0095 152.746 14.9963 152.808 14.9889L177.888 12.0132C177.963 12.0044 178.036 11.9874 178.106 11.9623L203.007 3.09914C203.189 3.03443 203.386 3.02371 203.573 3.06826L228.458 8.97298C228.533 8.99093 228.611 9 228.688 9H237" stroke="#17B26A" stroke-width="2" stroke-linecap="round" stroke-linejoin="round"/>
<defs>
<linearGradient id="paint0_linear_10101_34050" x1="118" y1="0" x2="118" y2="56" gradientUnits="userSpaceOnUse">
<stop/>
<stop offset="1" stop-opacity="0"/>
</linearGradient>
</defs>
</svg>
