<svg width="242" height="48" viewBox="0 0 242 48" fill="none" xmlns="http://www.w3.org/2000/svg">
<mask id="mask0_10042_34936" style="mask-type:alpha" maskUnits="userSpaceOnUse" x="1" y="0" width="240" height="56">
<rect width="240" height="56" transform="translate(1)" fill="url(#paint0_linear_10042_34936)"/>
</mask>
<g mask="url(#mask0_10042_34936)">
<path opacity="0.1" d="M215.302 45.3366L240.065 46.9395C240.591 46.9735 241 47.4102 241 47.9374V55.5C241 56.0523 240.552 56.5 240 56.5H2C1.44772 56.5 1 56.0523 1 55.5V10C1 9.44772 1.44771 9 2 9H9.45631C9.5328 9 9.60904 8.99122 9.68354 8.97384L35.0026 3.06607C35.1875 3.02292 35.3809 3.03332 35.5601 3.09605L60.8955 11.9634C60.965 11.9877 61.0369 12.0043 61.11 12.0128L86.6219 14.9892C86.6834 14.9964 86.744 15.0092 86.8031 15.0276L112.226 22.937C112.36 22.9785 112.5 22.9916 112.639 22.9754L137.989 20.018C138.091 20.0061 138.194 20.01 138.295 20.0296L163.691 24.9676C163.801 24.9891 163.907 25.0289 164.004 25.0855L189.43 39.9178C189.524 39.9722 189.625 40.0112 189.731 40.0331L215.302 45.3366Z" fill="#FF4D4F"/>
</g>
<path d="M241 47L215.302 45.3366L189.731 40.0331C189.625 40.0112 189.524 39.9722 189.43 39.9178L164.004 25.0855C163.907 25.0289 163.801 24.9891 163.691 24.9676L138.295 20.0296C138.194 20.01 138.091 20.0061 137.989 20.018L112.639 22.9754C112.5 22.9916 112.36 22.9785 112.226 22.937L86.8031 15.0276C86.744 15.0092 86.6834 14.9964 86.6219 14.9892L61.11 12.0128C61.0369 12.0043 60.965 11.9877 60.8955 11.9634L35.5601 3.09605C35.3809 3.03332 35.1875 3.02292 35.0026 3.06607L9.68354 8.97384C9.60904 8.99122 9.5328 9 9.45631 9H1" stroke="#FF4D4F" stroke-width="2" stroke-linecap="round" stroke-linejoin="round"/>
<defs>
<linearGradient id="paint0_linear_10042_34936" x1="120" y1="0" x2="120" y2="56" gradientUnits="userSpaceOnUse">
<stop/>
<stop offset="1" stop-opacity="0"/>
</linearGradient>
</defs>
</svg>
