<svg width="32" height="32" viewBox="0 0 32 32" fill="none" xmlns="http://www.w3.org/2000/svg">
<path d="M18.6667 12V11.4666C18.6667 10.7199 18.6667 10.3465 18.5213 10.0613C18.3935 9.81044 18.1895 9.60647 17.9387 9.47864C17.6534 9.33331 17.2801 9.33331 16.5333 9.33331H15.4667C14.7199 9.33331 14.3466 9.33331 14.0613 9.47864C13.8105 9.60647 13.6065 9.81044 13.4787 10.0613C13.3333 10.3465 13.3333 10.7199 13.3333 11.4666V12M14.6667 15.6666V19M17.3333 15.6666V19M10 12H22M20.6667 12V19.4666C20.6667 20.5868 20.6667 21.1468 20.4487 21.5746C20.2569 21.951 19.951 22.2569 19.5746 22.4487C19.1468 22.6666 18.5868 22.6666 17.4667 22.6666H14.5333C13.4132 22.6666 12.8532 22.6666 12.4254 22.4487C12.049 22.2569 11.7431 21.951 11.5513 21.5746C11.3333 21.1468 11.3333 20.5868 11.3333 19.4666V12" stroke="#A4A7AE" stroke-width="1.5" stroke-linecap="round" stroke-linejoin="round"/>
</svg>
