<svg width="15" height="12" viewBox="0 0 15 12" fill="none" xmlns="http://www.w3.org/2000/svg">
<path d="M1.11342 6.47543C1.02262 6.33167 0.977228 6.25979 0.951816 6.14892C0.932728 6.06565 0.932728 5.93431 0.951816 5.85104C0.977228 5.74017 1.02262 5.66829 1.11341 5.52453C1.86369 4.33654 4.09693 1.33331 7.50027 1.33331C10.9036 1.33331 13.1369 4.33654 13.8871 5.52453C13.9779 5.66829 14.0233 5.74017 14.0487 5.85104C14.0678 5.93431 14.0678 6.06565 14.0487 6.14892C14.0233 6.25979 13.9779 6.33167 13.8871 6.47543C13.1369 7.66342 10.9036 10.6666 7.50027 10.6666C4.09693 10.6666 1.86369 7.66342 1.11342 6.47543Z" stroke="#231E54" stroke-width="1.66667" stroke-linecap="round" stroke-linejoin="round"/>
<path d="M7.50027 7.99998C8.60484 7.99998 9.50027 7.10455 9.50027 5.99998C9.50027 4.89541 8.60484 3.99998 7.50027 3.99998C6.3957 3.99998 5.50027 4.89541 5.50027 5.99998C5.50027 7.10455 6.3957 7.99998 7.50027 7.99998Z" stroke="#231E54" stroke-width="1.66667" stroke-linecap="round" stroke-linejoin="round"/>
</svg>
